<svg width="20" height="20" viewBox="0 0 20 20" fill="none" xmlns="http://www.w3.org/2000/svg">
<path fill-rule="evenodd" clip-rule="evenodd" d="M20.0001 10C20.0001 15.52 15.5101 20 10.0001 20L9.72036 19.9962C4.32954 19.8478 0.00012207 15.4264 0.00012207 10C0.00012207 4.49 4.48012 0 10.0001 0C15.5101 0 20.0001 4.49 20.0001 10ZM8.02012 6C7.73012 6.3 7.73012 6.77 8.03012 7.06L10.9801 10L8.03012 12.94C7.73012 13.23 7.73012 13.71 8.02012 14C8.32012 14.3 8.79012 14.3 9.08012 14L12.5701 10.53C12.7101 10.39 12.7901 10.2 12.7901 10C12.7901 9.8 12.7101 9.61 12.5701 9.47L9.08012 6C8.94012 5.85 8.75012 5.78 8.56012 5.78C8.36012 5.78 8.17012 5.85 8.02012 6Z" fill="#69B99D"/>
</svg>
