<svg width="46" height="44" viewBox="0 0 46 44" fill="none" xmlns="http://www.w3.org/2000/svg">
<path fill-rule="evenodd" clip-rule="evenodd" d="M31.662 0.62658C33.0818 0.62658 34.4993 0.82683 35.847 1.27908C44.1518 3.97908 47.1443 13.0916 44.6445 21.0566C43.227 25.1268 40.9095 28.8416 37.8743 31.8768C33.5295 36.0843 28.7618 39.8194 23.6295 43.0368L23.067 43.3766L22.482 43.0144C17.3318 39.8194 12.537 36.0844 8.1518 31.8543C5.1368 28.8191 2.81705 25.1268 1.37705 21.0566C-1.16545 13.0916 1.82705 3.97908 10.2218 1.23183C10.8743 1.00683 11.547 0.84933 12.222 0.76158H12.492C13.1243 0.66933 13.752 0.62658 14.382 0.62658H14.6295C16.047 0.66933 17.4195 0.91683 18.7493 1.36908H18.882C18.972 1.41183 19.0395 1.45908 19.0845 1.50183C19.5818 1.66158 20.052 1.84158 20.502 2.08908L21.357 2.47158C21.5636 2.58177 21.7955 2.75013 21.996 2.89564C22.1229 2.98783 22.2373 3.07085 22.3245 3.12408C22.3613 3.14574 22.3986 3.16753 22.4362 3.18949C22.6291 3.30211 22.8301 3.41942 22.9995 3.54933C25.4993 1.63908 28.5345 0.60408 31.662 0.62658ZM37.6471 16.8266C38.5696 16.8018 39.357 16.0616 39.4245 15.1143V14.8466C39.492 11.6943 37.5818 8.83908 34.6771 7.73659C33.7546 7.41933 32.7421 7.91658 32.4046 8.86158C32.0896 9.80658 32.5846 10.8416 33.5296 11.1768C34.9718 11.7168 35.9371 13.1366 35.9371 14.7093V14.7791C35.8943 15.2943 36.0496 15.7916 36.3646 16.1741C36.6796 16.5566 37.1521 16.7793 37.6471 16.8266Z" fill="#69B99D"/>
</svg>
