<svg width="40" height="46" viewBox="0 0 40 46" fill="none" xmlns="http://www.w3.org/2000/svg">
<path fill-rule="evenodd" clip-rule="evenodd" d="M0.875 19.215C0.875 8.86526 9.52373 0.5 19.9853 0.5C30.4763 0.5 39.125 8.86526 39.125 19.215C39.125 24.4303 37.2283 29.2722 34.1064 33.376C30.6623 37.9029 26.4174 41.847 21.6392 44.943C20.5457 45.6584 19.5587 45.7124 18.3585 44.943C13.5532 41.847 9.3082 37.9029 5.89362 33.376C2.76946 29.2722 0.875 24.4303 0.875 19.215ZM13.687 19.7977C13.687 23.2649 16.5162 25.9918 19.9852 25.9918C23.4565 25.9918 26.313 23.2649 26.313 19.7977C26.313 16.3576 23.4565 13.4979 19.9852 13.4979C16.5162 13.4979 13.687 16.3576 13.687 19.7977Z" fill="#69B99D"/>
</svg>
