<svg width="40" height="46" viewBox="0 0 40 46" fill="none" xmlns="http://www.w3.org/2000/svg">
<path fill-rule="evenodd" clip-rule="evenodd" d="M19.3882 45.3057C19.6374 45.4359 19.916 45.5021 20.1946 45.4999C20.4732 45.4977 20.7496 45.4293 21.001 45.2969L29.0287 41.0055C31.3052 39.792 33.0879 38.4351 34.4787 36.8554C37.5027 33.4135 39.154 29.0206 39.1246 24.4909L39.0294 9.54946C39.0204 7.8285 37.89 6.29287 36.2184 5.73466L21.2842 0.724019C20.3849 0.419542 19.3995 0.426161 18.5161 0.739464L3.63855 5.92882C1.97592 6.5091 0.865994 8.05575 0.875055 9.77892L0.970192 24.7094C0.999639 29.2456 2.70757 33.6186 5.78139 37.0253C7.18579 38.583 8.98433 39.92 11.2857 41.1137L19.3882 45.3057ZM17.263 27.7451C17.5982 28.0672 18.0331 28.2261 18.4681 28.2217C18.903 28.2195 19.3356 28.0562 19.6663 27.7297L28.4393 19.0807C29.0985 18.4298 29.0917 17.384 28.4257 16.742C27.7575 16.0999 26.6815 16.1043 26.0224 16.7552L18.4431 24.226L15.3399 21.243C14.6717 20.6009 13.598 20.6075 12.9365 21.2584C12.2774 21.9093 12.2842 22.9551 12.9524 23.5971L17.263 27.7451Z" fill="#69B99D"/>
</svg>
