<svg width="16" height="12" viewBox="0 0 16 12" fill="none" xmlns="http://www.w3.org/2000/svg">
<path fill-rule="evenodd" clip-rule="evenodd" d="M4.42064 0.92203C6.80326 0.735625 9.1968 0.735625 11.5794 0.922031L13.1799 1.04725C14.0714 1.11699 14.8007 1.78513 14.9481 2.66711C15.3168 4.87389 15.3168 7.12657 14.9481 9.33335C14.8007 10.2153 14.0714 10.8835 13.1799 10.9532L11.5794 11.0784C9.1968 11.2648 6.80326 11.2648 4.42064 11.0784L2.82014 10.9532C1.92866 10.8835 1.19936 10.2153 1.05199 9.33335C0.683272 7.12657 0.683272 4.87389 1.05199 2.66711C1.19936 1.78513 1.92866 1.11699 2.82014 1.04725L4.42064 0.92203ZM6.57144 7.76462V4.23584C6.57144 4.06928 6.75315 3.9664 6.89597 4.05209L9.83662 5.81648C9.97533 5.89971 9.97533 6.10075 9.83662 6.18398L6.89597 7.94837C6.75315 8.03406 6.57144 7.93118 6.57144 7.76462Z" fill="#29CDB5"/>
</svg>
