<svg width="14" height="14" viewBox="0 0 14 14" fill="none" xmlns="http://www.w3.org/2000/svg">
<path d="M7.00003 4.67874C5.71794 4.67874 4.67861 5.71808 4.67861 7.00017C4.67861 8.28226 5.71794 9.3216 7.00003 9.3216C8.28212 9.3216 9.32146 8.28226 9.32146 7.00017C9.32146 5.71808 8.28212 4.67874 7.00003 4.67874Z" fill="#29CDB5"/>
<path fill-rule="evenodd" clip-rule="evenodd" d="M3.26399 0.629792C5.72693 0.354522 8.27315 0.354522 10.7361 0.629792C12.0921 0.781345 13.1858 1.84976 13.345 3.21051C13.6394 5.72837 13.6394 8.27197 13.345 10.7898C13.1858 12.1506 12.0921 13.219 10.7361 13.3705C8.27315 13.6458 5.72693 13.6458 3.26399 13.3705C1.90799 13.219 0.814282 12.1506 0.65513 10.7898C0.360644 8.27197 0.360644 5.72837 0.65513 3.21051C0.814282 1.84976 1.90799 0.781345 3.26399 0.629792ZM10.5715 2.71446C10.177 2.71446 9.85718 3.03425 9.85718 3.42874C9.85718 3.82323 10.177 4.14303 10.5715 4.14303C10.966 4.14303 11.2857 3.82323 11.2857 3.42874C11.2857 3.03425 10.966 2.71446 10.5715 2.71446ZM3.60718 7.00017C3.60718 5.12635 5.12621 3.60731 7.00003 3.60731C8.87386 3.60731 10.3929 5.12635 10.3929 7.00017C10.3929 8.87399 8.87386 10.393 7.00003 10.393C5.12621 10.393 3.60718 8.87399 3.60718 7.00017Z" fill="#29CDB5"/>
</svg>
