<svg width="46" height="44" viewBox="0 0 46 44" fill="none" xmlns="http://www.w3.org/2000/svg">
<path d="M36.3166 27.2202C35.7339 27.785 35.4661 28.6017 35.5989 29.4027L37.5991 40.4727C37.7679 41.411 37.3719 42.3605 36.5866 42.9027C35.8171 43.4652 34.7934 43.5327 33.9541 43.0827L23.9889 37.8852C23.6424 37.7007 23.2576 37.6017 22.8639 37.5905H22.2541C22.0426 37.622 21.8356 37.6895 21.6466 37.793L11.6791 43.0152C11.1864 43.2627 10.6284 43.3505 10.0816 43.2627C8.74962 43.0107 7.86087 41.7417 8.07911 40.403L10.0816 29.333C10.2144 28.5252 9.94662 27.704 9.36386 27.1302L1.23912 19.2552C0.559616 18.596 0.323366 17.606 0.633866 16.7127C0.935366 15.8217 1.70487 15.1715 2.63412 15.0252L13.8166 13.403C14.6671 13.3152 15.4141 12.7977 15.7966 12.0327L20.7241 1.93024C20.8411 1.70524 20.9919 1.49824 21.1741 1.32274L21.3766 1.16524C21.4824 1.04824 21.6039 0.951494 21.7389 0.872744L21.9841 0.782744L22.3666 0.625244H23.3139C24.1599 0.712994 24.9046 1.21924 25.2939 1.97524L30.2866 12.0327C30.6466 12.7685 31.3464 13.2792 32.1541 13.403L43.3366 15.0252C44.2816 15.1602 45.0714 15.8127 45.3841 16.7127C45.6789 17.615 45.4246 18.605 44.7316 19.2552L36.3166 27.2202Z" fill="#69B99D"/>
</svg>
