<svg width="16" height="15" viewBox="0 0 16 15" fill="none" xmlns="http://www.w3.org/2000/svg">
<path d="M12.1699 14.7499C12.05 14.7504 11.9317 14.7221 11.8249 14.6674L7.99995 12.6649L4.17494 14.6674C4.05074 14.7327 3.9107 14.7619 3.77075 14.7516C3.6308 14.7412 3.49655 14.6919 3.38327 14.6091C3.26998 14.5262 3.1822 14.4133 3.12991 14.2831C3.07761 14.1529 3.0629 14.0106 3.08744 13.8724L3.83744 9.64991L0.747444 6.64991C0.651037 6.5537 0.582648 6.43306 0.549615 6.30093C0.516582 6.1688 0.520153 6.03016 0.559944 5.89991C0.603414 5.76661 0.683376 5.64817 0.790757 5.55803C0.898137 5.46788 1.02864 5.40964 1.16744 5.38991L5.44244 4.76741L7.32495 0.919909C7.38636 0.793105 7.48225 0.686165 7.60163 0.611339C7.72101 0.536513 7.85905 0.496826 7.99995 0.496826C8.14084 0.496826 8.27888 0.536513 8.39826 0.611339C8.51764 0.686165 8.61353 0.793105 8.67494 0.919909L10.5799 4.75991L14.8549 5.38241C14.9938 5.40214 15.1243 5.46038 15.2316 5.55053C15.339 5.64067 15.419 5.75911 15.4624 5.89241C15.5022 6.02266 15.5058 6.1613 15.4728 6.29343C15.4397 6.42556 15.3714 6.5462 15.2749 6.64241L12.1849 9.64241L12.9349 13.8649C12.9617 14.0055 12.9477 14.1508 12.8945 14.2837C12.8414 14.4166 12.7513 14.5316 12.6349 14.6149C12.4991 14.7101 12.3356 14.7576 12.1699 14.7499Z" fill="#69B99D"/>
</svg>
