<svg width="46" height="42" viewBox="0 0 46 42" fill="none" xmlns="http://www.w3.org/2000/svg">
<path fill-rule="evenodd" clip-rule="evenodd" d="M40.4622 21.0022C40.4622 22.8326 41.9653 24.3219 43.8125 24.3219C44.744 24.3219 45.5 25.071 45.5 25.9939V32.0157C45.5 37.1077 41.3195 41.25 36.1805 41.25H9.82175C4.68275 41.25 0.5 37.1077 0.5 32.0157V25.9939C0.5 25.071 1.256 24.3219 2.1875 24.3219C4.037 24.3219 5.54 22.8326 5.54 21.0022C5.54 19.2187 4.09775 17.8766 2.1875 17.8766C1.73975 17.8766 1.31225 17.7004 0.995 17.3861C0.67775 17.0717 0.5 16.6459 0.5 16.2045L0.5045 9.98657C0.5045 4.89453 4.685 0.75 9.824 0.75H36.176C41.315 0.75 45.4977 4.89453 45.4977 9.98657L45.5 16.0105C45.5 16.4519 45.3223 16.88 45.0073 17.1921C44.69 17.5065 44.2625 17.6826 43.8125 17.6826C41.9653 17.6826 40.4622 19.1719 40.4622 21.0022ZM28.0669 22.4582L30.7197 19.8988C31.1809 19.4573 31.3407 18.8063 31.1404 18.2044C30.9424 17.6024 30.4249 17.1744 29.7994 17.0874L26.1342 16.5568L24.4939 13.2662C24.2127 12.6999 23.6412 12.3477 23.0044 12.3454H22.9999C22.3654 12.3454 21.7939 12.6977 21.5082 13.264L19.8679 16.5568L16.2094 17.0852C15.5772 17.1744 15.0597 17.6024 14.8594 18.2044C14.6614 18.8063 14.8212 19.4573 15.2802 19.8988L17.9329 22.4582L17.3074 26.0765C17.1994 26.7008 17.4537 27.3206 17.9712 27.6929C18.2637 27.9002 18.6034 28.0072 18.9477 28.0072C19.2109 28.0072 19.4764 27.9426 19.7194 27.8155L22.9999 26.1078L26.2737 27.811C26.8407 28.112 27.5134 28.0652 28.0287 27.6907C28.5484 27.3206 28.8027 26.7008 28.6947 26.0765L28.0669 22.4582Z" fill="#69B99D"/>
</svg>
